<?xml version="1.0" encoding="utf-8" standalone="no"?>
<!DOCTYPE svg PUBLIC "-//W3C//DTD SVG 1.1//EN"
  "http://www.w3.org/Graphics/SVG/1.1/DTD/svg11.dtd">
<svg xmlns:xlink="http://www.w3.org/1999/xlink" width="237.6pt" height="180.72pt" viewBox="0 0 237.6 180.72" xmlns="http://www.w3.org/2000/svg" version="1.1">
 <metadata>
  <rdf:RDF xmlns:dc="http://purl.org/dc/elements/1.1/" xmlns:cc="http://creativecommons.org/ns#" xmlns:rdf="http://www.w3.org/1999/02/22-rdf-syntax-ns#">
   <cc:Work>
    <dc:type rdf:resource="http://purl.org/dc/dcmitype/StillImage"/>
    <dc:date>2024-02-26T15:05:57.321172</dc:date>
    <dc:format>image/svg+xml</dc:format>
    <dc:creator>
     <cc:Agent>
      <dc:title>Matplotlib v3.7.1, https://matplotlib.org/</dc:title>
     </cc:Agent>
    </dc:creator>
   </cc:Work>
  </rdf:RDF>
 </metadata>
 <defs>
  <style type="text/css">*{stroke-linejoin: round; stroke-linecap: butt}</style>
 </defs>
 <g id="figure_1">
  <g id="patch_1">
   <path d="M 0 180.72 
L 237.6 180.72 
L 237.6 0 
L 0 0 
z
" style="fill: #ffffff"/>
  </g>
  <g id="axes_1">
   <g id="patch_2">
    <path d="M 7.2 173.52 
L 230.4 173.52 
L 230.4 7.2 
L 7.2 7.2 
z
" style="fill: #ffffff"/>
   </g>
   <g id="line2d_1">
    <path d="M 53.050393 102.096811 
L 41.614662 101.952663 
L 33.556729 101.62079 
L 27.482286 101.158282 
L 22.840191 100.593388 
L 19.327271 99.954465 
L 16.606322 99.24093 
L 14.551544 98.481387 
L 12.95246 97.660736 
L 11.707177 96.77837 
L 10.713662 95.804055 
L 9.915762 94.706995 
L 9.273738 93.440772 
L 8.754054 91.912667 
L 8.340687 89.98163 
L 8.027263 87.393699 
L 7.825761 83.756548 
L 7.778586 78.725148 
L 7.941593 73.546476 
L 8.271473 69.693445 
L 8.72816 66.862287 
L 9.296289 64.68611 
L 9.975726 62.929327 
L 10.778602 61.448339 
L 11.735389 60.145979 
L 12.87941 58.973754 
L 14.2074 57.933347 
L 15.79247 56.974828 
L 17.706135 56.081856 
L 20.015608 55.255072 
L 22.814211 54.495071 
L 26.247783 53.8024 
L 30.443362 53.194934 
L 35.368288 52.708032 
L 41.341692 52.342313 
L 48.441449 52.133121 
L 52.341328 52.098241 
L 52.341328 52.098241 
" clip-path="url(#pb503fca9c4)" style="fill: none; stroke: #ffd700; stroke-width: 2; stroke-linecap: square"/>
   </g>
   <g id="line2d_2">
    <path d="M 53.619427 102.096811 
L 67.161539 101.938243 
L 80.46441 101.534138 
L 93.919146 100.897728 
L 106.669203 100.07076 
L 118.120624 99.109642 
L 128.261342 98.042099 
L 137.197596 96.881478 
L 144.835311 95.670891 
L 151.403074 94.409647 
L 156.937315 93.126934 
L 161.606759 91.822484 
L 165.452874 90.526249 
L 168.643888 89.22324 
L 171.208235 87.943959 
L 173.242985 86.688839 
L 174.80677 85.473724 
L 175.973051 84.299247 
L 176.82031 83.134909 
L 177.364987 82.012153 
L 177.655171 80.900182 
L 177.709572 79.814939 
L 177.544417 78.725148 
L 177.140825 77.583105 
L 176.50168 76.436068 
L 175.541446 75.187781 
L 174.261767 73.901342 
L 172.586487 72.54385 
L 170.476613 71.130571 
L 167.930453 69.693445 
L 164.790263 68.182777 
L 161.113375 66.663661 
L 156.736556 65.102746 
L 151.64503 63.532913 
L 145.855609 61.987795 
L 139.350826 60.484839 
L 132.032783 59.024822 
L 123.861785 57.625607 
L 115.04643 56.339733 
L 105.357469 55.151555 
L 95.067024 54.11431 
L 84.437328 53.264424 
L 73.915898 52.638407 
L 64.047011 52.255168 
L 54.283602 52.098241 
L 54.283602 52.098241 
" clip-path="url(#pb503fca9c4)" style="fill: none; stroke: #ffd700; stroke-width: 2; stroke-linecap: square"/>
   </g>
   <g id="line2d_3">
    <path d="M 19.254286 161.085245 
L 16.017336 160.944335 
L 15.50205 160.879262 
L 13.496124 160.520938 
L 11.968403 160.031157 
L 10.801035 159.430719 
L 9.896056 158.718524 
L 9.190944 157.882239 
L 8.628184 156.864725 
L 8.182131 155.584828 
L 7.834867 153.87939 
L 7.579858 151.428684 
L 7.417738 147.493838 
L 7.374623 140.406067 
L 7.528185 133.057119 
L 7.821213 128.828145 
L 8.227282 126.021379 
L 8.733335 123.989979 
L 9.350232 122.401061 
L 10.068799 121.145372 
L 10.904998 120.122284 
L 11.87778 119.281652 
L 13.008987 118.598786 
L 14.330053 118.061726 
L 15.878717 117.671542 
L 17.659964 117.442495 
L 18.811739 117.388567 
L 18.811739 117.388567 
" clip-path="url(#pb503fca9c4)" style="fill: none; stroke: #daa520; stroke-width: 2; stroke-linecap: square"/>
   </g>
   <g id="line2d_4">
    <path d="M 19.384106 161.085245 
L 23.229258 160.933491 
L 26.732981 160.597006 
L 26.156708 160.586141 
L 27.442423 160.510068 
L 31.962672 159.823959 
L 36.593632 158.894094 
L 41.007566 157.78295 
L 45.03724 156.542809 
L 48.573835 155.227093 
L 51.606174 153.868118 
L 54.156379 152.487784 
L 56.234601 151.120084 
L 57.945841 149.730877 
L 59.227116 148.424285 
L 60.256116 147.061979 
L 60.986372 145.725278 
L 61.456632 144.403003 
L 61.69119 143.095573 
L 61.706841 141.743378 
L 61.498815 140.369799 
L 61.052932 138.937992 
L 60.356822 137.459109 
L 59.377729 135.907545 
L 58.074244 134.269336 
L 56.417542 132.555156 
L 54.39618 130.788671 
L 51.97211 128.96879 
L 49.11405 127.107279 
L 45.877336 125.268357 
L 42.297133 123.492235 
L 38.47942 121.846806 
L 34.570875 120.401781 
L 30.733356 119.214798 
L 27.093439 118.316992 
L 26.308816 118.155806 
L 25.27398 118.142368 
L 25.747991 118.048283 
L 22.599517 117.577257 
L 22.781754 117.563785 
L 19.794955 117.388567 
L 19.794955 117.388567 
" clip-path="url(#pb503fca9c4)" style="fill: none; stroke: #daa520; stroke-width: 2; stroke-linecap: square"/>
   </g>
   <g id="matplotlib.axis_1">
    <g id="xtick_1">
     <g id="line2d_5">
      <defs>
       <path id="m5de68c1dd5" d="M 0 0 
L 0 -3.5 
" style="stroke: #000000; stroke-width: 0.8"/>
      </defs>
      <g>
       <use xlink:href="#m5de68c1dd5" x="7.2" y="173.52" style="stroke: #000000; stroke-width: 0.8"/>
      </g>
     </g>
     <g id="line2d_6">
      <defs>
       <path id="m0c0db6ca4b" d="M 0 0 
L 0 3.5 
" style="stroke: #000000; stroke-width: 0.8"/>
      </defs>
      <g>
       <use xlink:href="#m0c0db6ca4b" x="7.2" y="7.2" style="stroke: #000000; stroke-width: 0.8"/>
      </g>
     </g>
    </g>
    <g id="xtick_2">
     <g id="line2d_7">
      <g>
       <use xlink:href="#m5de68c1dd5" x="63" y="173.52" style="stroke: #000000; stroke-width: 0.8"/>
      </g>
     </g>
     <g id="line2d_8">
      <g>
       <use xlink:href="#m0c0db6ca4b" x="63" y="7.2" style="stroke: #000000; stroke-width: 0.8"/>
      </g>
     </g>
    </g>
    <g id="xtick_3">
     <g id="line2d_9">
      <g>
       <use xlink:href="#m5de68c1dd5" x="118.8" y="173.52" style="stroke: #000000; stroke-width: 0.8"/>
      </g>
     </g>
     <g id="line2d_10">
      <g>
       <use xlink:href="#m0c0db6ca4b" x="118.8" y="7.2" style="stroke: #000000; stroke-width: 0.8"/>
      </g>
     </g>
    </g>
    <g id="xtick_4">
     <g id="line2d_11">
      <g>
       <use xlink:href="#m5de68c1dd5" x="174.6" y="173.52" style="stroke: #000000; stroke-width: 0.8"/>
      </g>
     </g>
     <g id="line2d_12">
      <g>
       <use xlink:href="#m0c0db6ca4b" x="174.6" y="7.2" style="stroke: #000000; stroke-width: 0.8"/>
      </g>
     </g>
    </g>
    <g id="xtick_5">
     <g id="line2d_13">
      <g>
       <use xlink:href="#m5de68c1dd5" x="230.4" y="173.52" style="stroke: #000000; stroke-width: 0.8"/>
      </g>
     </g>
     <g id="line2d_14">
      <g>
       <use xlink:href="#m0c0db6ca4b" x="230.4" y="7.2" style="stroke: #000000; stroke-width: 0.8"/>
      </g>
     </g>
    </g>
    <g id="xtick_6">
     <g id="line2d_15">
      <defs>
       <path id="mb4084d088d" d="M 0 0 
L 0 -2 
" style="stroke: #000000; stroke-width: 0.6"/>
      </defs>
      <g>
       <use xlink:href="#mb4084d088d" x="18.36" y="173.52" style="stroke: #000000; stroke-width: 0.6"/>
      </g>
     </g>
     <g id="line2d_16">
      <defs>
       <path id="me8626bf3b4" d="M 0 0 
L 0 2 
" style="stroke: #000000; stroke-width: 0.6"/>
      </defs>
      <g>
       <use xlink:href="#me8626bf3b4" x="18.36" y="7.2" style="stroke: #000000; stroke-width: 0.6"/>
      </g>
     </g>
    </g>
    <g id="xtick_7">
     <g id="line2d_17">
      <g>
       <use xlink:href="#mb4084d088d" x="29.52" y="173.52" style="stroke: #000000; stroke-width: 0.6"/>
      </g>
     </g>
     <g id="line2d_18">
      <g>
       <use xlink:href="#me8626bf3b4" x="29.52" y="7.2" style="stroke: #000000; stroke-width: 0.6"/>
      </g>
     </g>
    </g>
    <g id="xtick_8">
     <g id="line2d_19">
      <g>
       <use xlink:href="#mb4084d088d" x="40.68" y="173.52" style="stroke: #000000; stroke-width: 0.6"/>
      </g>
     </g>
     <g id="line2d_20">
      <g>
       <use xlink:href="#me8626bf3b4" x="40.68" y="7.2" style="stroke: #000000; stroke-width: 0.6"/>
      </g>
     </g>
    </g>
    <g id="xtick_9">
     <g id="line2d_21">
      <g>
       <use xlink:href="#mb4084d088d" x="51.84" y="173.52" style="stroke: #000000; stroke-width: 0.6"/>
      </g>
     </g>
     <g id="line2d_22">
      <g>
       <use xlink:href="#me8626bf3b4" x="51.84" y="7.2" style="stroke: #000000; stroke-width: 0.6"/>
      </g>
     </g>
    </g>
    <g id="xtick_10">
     <g id="line2d_23">
      <g>
       <use xlink:href="#mb4084d088d" x="74.16" y="173.52" style="stroke: #000000; stroke-width: 0.6"/>
      </g>
     </g>
     <g id="line2d_24">
      <g>
       <use xlink:href="#me8626bf3b4" x="74.16" y="7.2" style="stroke: #000000; stroke-width: 0.6"/>
      </g>
     </g>
    </g>
    <g id="xtick_11">
     <g id="line2d_25">
      <g>
       <use xlink:href="#mb4084d088d" x="85.32" y="173.52" style="stroke: #000000; stroke-width: 0.6"/>
      </g>
     </g>
     <g id="line2d_26">
      <g>
       <use xlink:href="#me8626bf3b4" x="85.32" y="7.2" style="stroke: #000000; stroke-width: 0.6"/>
      </g>
     </g>
    </g>
    <g id="xtick_12">
     <g id="line2d_27">
      <g>
       <use xlink:href="#mb4084d088d" x="96.48" y="173.52" style="stroke: #000000; stroke-width: 0.6"/>
      </g>
     </g>
     <g id="line2d_28">
      <g>
       <use xlink:href="#me8626bf3b4" x="96.48" y="7.2" style="stroke: #000000; stroke-width: 0.6"/>
      </g>
     </g>
    </g>
    <g id="xtick_13">
     <g id="line2d_29">
      <g>
       <use xlink:href="#mb4084d088d" x="107.64" y="173.52" style="stroke: #000000; stroke-width: 0.6"/>
      </g>
     </g>
     <g id="line2d_30">
      <g>
       <use xlink:href="#me8626bf3b4" x="107.64" y="7.2" style="stroke: #000000; stroke-width: 0.6"/>
      </g>
     </g>
    </g>
    <g id="xtick_14">
     <g id="line2d_31">
      <g>
       <use xlink:href="#mb4084d088d" x="129.96" y="173.52" style="stroke: #000000; stroke-width: 0.6"/>
      </g>
     </g>
     <g id="line2d_32">
      <g>
       <use xlink:href="#me8626bf3b4" x="129.96" y="7.2" style="stroke: #000000; stroke-width: 0.6"/>
      </g>
     </g>
    </g>
    <g id="xtick_15">
     <g id="line2d_33">
      <g>
       <use xlink:href="#mb4084d088d" x="141.12" y="173.52" style="stroke: #000000; stroke-width: 0.6"/>
      </g>
     </g>
     <g id="line2d_34">
      <g>
       <use xlink:href="#me8626bf3b4" x="141.12" y="7.2" style="stroke: #000000; stroke-width: 0.6"/>
      </g>
     </g>
    </g>
    <g id="xtick_16">
     <g id="line2d_35">
      <g>
       <use xlink:href="#mb4084d088d" x="152.28" y="173.52" style="stroke: #000000; stroke-width: 0.6"/>
      </g>
     </g>
     <g id="line2d_36">
      <g>
       <use xlink:href="#me8626bf3b4" x="152.28" y="7.2" style="stroke: #000000; stroke-width: 0.6"/>
      </g>
     </g>
    </g>
    <g id="xtick_17">
     <g id="line2d_37">
      <g>
       <use xlink:href="#mb4084d088d" x="163.44" y="173.52" style="stroke: #000000; stroke-width: 0.6"/>
      </g>
     </g>
     <g id="line2d_38">
      <g>
       <use xlink:href="#me8626bf3b4" x="163.44" y="7.2" style="stroke: #000000; stroke-width: 0.6"/>
      </g>
     </g>
    </g>
    <g id="xtick_18">
     <g id="line2d_39">
      <g>
       <use xlink:href="#mb4084d088d" x="185.76" y="173.52" style="stroke: #000000; stroke-width: 0.6"/>
      </g>
     </g>
     <g id="line2d_40">
      <g>
       <use xlink:href="#me8626bf3b4" x="185.76" y="7.2" style="stroke: #000000; stroke-width: 0.6"/>
      </g>
     </g>
    </g>
    <g id="xtick_19">
     <g id="line2d_41">
      <g>
       <use xlink:href="#mb4084d088d" x="196.92" y="173.52" style="stroke: #000000; stroke-width: 0.6"/>
      </g>
     </g>
     <g id="line2d_42">
      <g>
       <use xlink:href="#me8626bf3b4" x="196.92" y="7.2" style="stroke: #000000; stroke-width: 0.6"/>
      </g>
     </g>
    </g>
    <g id="xtick_20">
     <g id="line2d_43">
      <g>
       <use xlink:href="#mb4084d088d" x="208.08" y="173.52" style="stroke: #000000; stroke-width: 0.6"/>
      </g>
     </g>
     <g id="line2d_44">
      <g>
       <use xlink:href="#me8626bf3b4" x="208.08" y="7.2" style="stroke: #000000; stroke-width: 0.6"/>
      </g>
     </g>
    </g>
    <g id="xtick_21">
     <g id="line2d_45">
      <g>
       <use xlink:href="#mb4084d088d" x="219.24" y="173.52" style="stroke: #000000; stroke-width: 0.6"/>
      </g>
     </g>
     <g id="line2d_46">
      <g>
       <use xlink:href="#me8626bf3b4" x="219.24" y="7.2" style="stroke: #000000; stroke-width: 0.6"/>
      </g>
     </g>
    </g>
   </g>
   <g id="matplotlib.axis_2">
    <g id="ytick_1">
     <g id="line2d_47">
      <defs>
       <path id="m85d8394bab" d="M 0 0 
L 3.5 0 
" style="stroke: #000000; stroke-width: 0.8"/>
      </defs>
      <g>
       <use xlink:href="#m85d8394bab" x="7.2" y="173.52" style="stroke: #000000; stroke-width: 0.8"/>
      </g>
     </g>
     <g id="line2d_48">
      <defs>
       <path id="m4aa49469f5" d="M 0 0 
L -3.5 0 
" style="stroke: #000000; stroke-width: 0.8"/>
      </defs>
      <g>
       <use xlink:href="#m4aa49469f5" x="230.4" y="173.52" style="stroke: #000000; stroke-width: 0.8"/>
      </g>
     </g>
    </g>
    <g id="ytick_2">
     <g id="line2d_49">
      <g>
       <use xlink:href="#m85d8394bab" x="7.2" y="131.94" style="stroke: #000000; stroke-width: 0.8"/>
      </g>
     </g>
     <g id="line2d_50">
      <g>
       <use xlink:href="#m4aa49469f5" x="230.4" y="131.94" style="stroke: #000000; stroke-width: 0.8"/>
      </g>
     </g>
    </g>
    <g id="ytick_3">
     <g id="line2d_51">
      <g>
       <use xlink:href="#m85d8394bab" x="7.2" y="90.36" style="stroke: #000000; stroke-width: 0.8"/>
      </g>
     </g>
     <g id="line2d_52">
      <g>
       <use xlink:href="#m4aa49469f5" x="230.4" y="90.36" style="stroke: #000000; stroke-width: 0.8"/>
      </g>
     </g>
    </g>
    <g id="ytick_4">
     <g id="line2d_53">
      <g>
       <use xlink:href="#m85d8394bab" x="7.2" y="48.78" style="stroke: #000000; stroke-width: 0.8"/>
      </g>
     </g>
     <g id="line2d_54">
      <g>
       <use xlink:href="#m4aa49469f5" x="230.4" y="48.78" style="stroke: #000000; stroke-width: 0.8"/>
      </g>
     </g>
    </g>
    <g id="ytick_5">
     <g id="line2d_55">
      <g>
       <use xlink:href="#m85d8394bab" x="7.2" y="7.2" style="stroke: #000000; stroke-width: 0.8"/>
      </g>
     </g>
     <g id="line2d_56">
      <g>
       <use xlink:href="#m4aa49469f5" x="230.4" y="7.2" style="stroke: #000000; stroke-width: 0.8"/>
      </g>
     </g>
    </g>
    <g id="ytick_6">
     <g id="line2d_57">
      <defs>
       <path id="m7a1a37745d" d="M 0 0 
L 2 0 
" style="stroke: #000000; stroke-width: 0.6"/>
      </defs>
      <g>
       <use xlink:href="#m7a1a37745d" x="7.2" y="165.204" style="stroke: #000000; stroke-width: 0.6"/>
      </g>
     </g>
     <g id="line2d_58">
      <defs>
       <path id="m2c9a10e785" d="M 0 0 
L -2 0 
" style="stroke: #000000; stroke-width: 0.6"/>
      </defs>
      <g>
       <use xlink:href="#m2c9a10e785" x="230.4" y="165.204" style="stroke: #000000; stroke-width: 0.6"/>
      </g>
     </g>
    </g>
    <g id="ytick_7">
     <g id="line2d_59">
      <g>
       <use xlink:href="#m7a1a37745d" x="7.2" y="156.888" style="stroke: #000000; stroke-width: 0.6"/>
      </g>
     </g>
     <g id="line2d_60">
      <g>
       <use xlink:href="#m2c9a10e785" x="230.4" y="156.888" style="stroke: #000000; stroke-width: 0.6"/>
      </g>
     </g>
    </g>
    <g id="ytick_8">
     <g id="line2d_61">
      <g>
       <use xlink:href="#m7a1a37745d" x="7.2" y="148.572" style="stroke: #000000; stroke-width: 0.6"/>
      </g>
     </g>
     <g id="line2d_62">
      <g>
       <use xlink:href="#m2c9a10e785" x="230.4" y="148.572" style="stroke: #000000; stroke-width: 0.6"/>
      </g>
     </g>
    </g>
    <g id="ytick_9">
     <g id="line2d_63">
      <g>
       <use xlink:href="#m7a1a37745d" x="7.2" y="140.256" style="stroke: #000000; stroke-width: 0.6"/>
      </g>
     </g>
     <g id="line2d_64">
      <g>
       <use xlink:href="#m2c9a10e785" x="230.4" y="140.256" style="stroke: #000000; stroke-width: 0.6"/>
      </g>
     </g>
    </g>
    <g id="ytick_10">
     <g id="line2d_65">
      <g>
       <use xlink:href="#m7a1a37745d" x="7.2" y="123.624" style="stroke: #000000; stroke-width: 0.6"/>
      </g>
     </g>
     <g id="line2d_66">
      <g>
       <use xlink:href="#m2c9a10e785" x="230.4" y="123.624" style="stroke: #000000; stroke-width: 0.6"/>
      </g>
     </g>
    </g>
    <g id="ytick_11">
     <g id="line2d_67">
      <g>
       <use xlink:href="#m7a1a37745d" x="7.2" y="115.308" style="stroke: #000000; stroke-width: 0.6"/>
      </g>
     </g>
     <g id="line2d_68">
      <g>
       <use xlink:href="#m2c9a10e785" x="230.4" y="115.308" style="stroke: #000000; stroke-width: 0.6"/>
      </g>
     </g>
    </g>
    <g id="ytick_12">
     <g id="line2d_69">
      <g>
       <use xlink:href="#m7a1a37745d" x="7.2" y="106.992" style="stroke: #000000; stroke-width: 0.6"/>
      </g>
     </g>
     <g id="line2d_70">
      <g>
       <use xlink:href="#m2c9a10e785" x="230.4" y="106.992" style="stroke: #000000; stroke-width: 0.6"/>
      </g>
     </g>
    </g>
    <g id="ytick_13">
     <g id="line2d_71">
      <g>
       <use xlink:href="#m7a1a37745d" x="7.2" y="98.676" style="stroke: #000000; stroke-width: 0.6"/>
      </g>
     </g>
     <g id="line2d_72">
      <g>
       <use xlink:href="#m2c9a10e785" x="230.4" y="98.676" style="stroke: #000000; stroke-width: 0.6"/>
      </g>
     </g>
    </g>
    <g id="ytick_14">
     <g id="line2d_73">
      <g>
       <use xlink:href="#m7a1a37745d" x="7.2" y="82.044" style="stroke: #000000; stroke-width: 0.6"/>
      </g>
     </g>
     <g id="line2d_74">
      <g>
       <use xlink:href="#m2c9a10e785" x="230.4" y="82.044" style="stroke: #000000; stroke-width: 0.6"/>
      </g>
     </g>
    </g>
    <g id="ytick_15">
     <g id="line2d_75">
      <g>
       <use xlink:href="#m7a1a37745d" x="7.2" y="73.728" style="stroke: #000000; stroke-width: 0.6"/>
      </g>
     </g>
     <g id="line2d_76">
      <g>
       <use xlink:href="#m2c9a10e785" x="230.4" y="73.728" style="stroke: #000000; stroke-width: 0.6"/>
      </g>
     </g>
    </g>
    <g id="ytick_16">
     <g id="line2d_77">
      <g>
       <use xlink:href="#m7a1a37745d" x="7.2" y="65.412" style="stroke: #000000; stroke-width: 0.6"/>
      </g>
     </g>
     <g id="line2d_78">
      <g>
       <use xlink:href="#m2c9a10e785" x="230.4" y="65.412" style="stroke: #000000; stroke-width: 0.6"/>
      </g>
     </g>
    </g>
    <g id="ytick_17">
     <g id="line2d_79">
      <g>
       <use xlink:href="#m7a1a37745d" x="7.2" y="57.096" style="stroke: #000000; stroke-width: 0.6"/>
      </g>
     </g>
     <g id="line2d_80">
      <g>
       <use xlink:href="#m2c9a10e785" x="230.4" y="57.096" style="stroke: #000000; stroke-width: 0.6"/>
      </g>
     </g>
    </g>
    <g id="ytick_18">
     <g id="line2d_81">
      <g>
       <use xlink:href="#m7a1a37745d" x="7.2" y="40.464" style="stroke: #000000; stroke-width: 0.6"/>
      </g>
     </g>
     <g id="line2d_82">
      <g>
       <use xlink:href="#m2c9a10e785" x="230.4" y="40.464" style="stroke: #000000; stroke-width: 0.6"/>
      </g>
     </g>
    </g>
    <g id="ytick_19">
     <g id="line2d_83">
      <g>
       <use xlink:href="#m7a1a37745d" x="7.2" y="32.148" style="stroke: #000000; stroke-width: 0.6"/>
      </g>
     </g>
     <g id="line2d_84">
      <g>
       <use xlink:href="#m2c9a10e785" x="230.4" y="32.148" style="stroke: #000000; stroke-width: 0.6"/>
      </g>
     </g>
    </g>
    <g id="ytick_20">
     <g id="line2d_85">
      <g>
       <use xlink:href="#m7a1a37745d" x="7.2" y="23.832" style="stroke: #000000; stroke-width: 0.6"/>
      </g>
     </g>
     <g id="line2d_86">
      <g>
       <use xlink:href="#m2c9a10e785" x="230.4" y="23.832" style="stroke: #000000; stroke-width: 0.6"/>
      </g>
     </g>
    </g>
    <g id="ytick_21">
     <g id="line2d_87">
      <g>
       <use xlink:href="#m7a1a37745d" x="7.2" y="15.516" style="stroke: #000000; stroke-width: 0.6"/>
      </g>
     </g>
     <g id="line2d_88">
      <g>
       <use xlink:href="#m2c9a10e785" x="230.4" y="15.516" style="stroke: #000000; stroke-width: 0.6"/>
      </g>
     </g>
    </g>
   </g>
   <g id="patch_3">
    <path d="M 7.2 173.52 
L 7.2 7.2 
" style="fill: none; stroke: #000000; stroke-width: 0.8; stroke-linejoin: miter; stroke-linecap: square"/>
   </g>
   <g id="patch_4">
    <path d="M 230.4 173.52 
L 230.4 7.2 
" style="fill: none; stroke: #000000; stroke-width: 0.8; stroke-linejoin: miter; stroke-linecap: square"/>
   </g>
   <g id="patch_5">
    <path d="M 7.2 173.52 
L 230.4 173.52 
" style="fill: none; stroke: #000000; stroke-width: 0.8; stroke-linejoin: miter; stroke-linecap: square"/>
   </g>
   <g id="patch_6">
    <path d="M 7.2 7.2 
L 230.4 7.2 
" style="fill: none; stroke: #000000; stroke-width: 0.8; stroke-linejoin: miter; stroke-linecap: square"/>
   </g>
   <g id="PathCollection_1">
    <defs>
     <path id="m0a5c0b2472" d="M 0 -3.535534 
L -3.535534 3.535534 
L 3.535534 3.535534 
z
" style="stroke: #000000"/>
    </defs>
    <g clip-path="url(#pb503fca9c4)">
     <use xlink:href="#m0a5c0b2472" x="20.799226" y="55.048873" style="fill: #ffd700; stroke: #000000"/>
     <use xlink:href="#m0a5c0b2472" x="26.411605" y="52.681198" style="fill: #ffd700; stroke: #000000"/>
     <use xlink:href="#m0a5c0b2472" x="35.046035" y="52.397078" style="fill: #ffd700; stroke: #000000"/>
     <use xlink:href="#m0a5c0b2472" x="48.645261" y="51.828836" style="fill: #ffd700; stroke: #000000"/>
     <use xlink:href="#m0a5c0b2472" x="62.89207" y="52.775905" style="fill: #ffd700; stroke: #000000"/>
     <use xlink:href="#m0a5c0b2472" x="90.306383" y="55.4277" style="fill: #ffd700; stroke: #000000"/>
     <use xlink:href="#m0a5c0b2472" x="118.368279" y="61.583653" style="fill: #ffd700; stroke: #000000"/>
     <use xlink:href="#m0a5c0b2472" x="130.888201" y="64.519569" style="fill: #ffd700; stroke: #000000"/>
     <use xlink:href="#m0a5c0b2472" x="130.67234" y="92.931658" style="fill: #ffd700; stroke: #000000"/>
     <use xlink:href="#m0a5c0b2472" x="118.584139" y="97.004058" style="fill: #ffd700; stroke: #000000"/>
     <use xlink:href="#m0a5c0b2472" x="90.306383" y="100.887043" style="fill: #ffd700; stroke: #000000"/>
     <use xlink:href="#m0a5c0b2472" x="63.323791" y="101.739406" style="fill: #ffd700; stroke: #000000"/>
     <use xlink:href="#m0a5c0b2472" x="49.076983" y="102.307648" style="fill: #ffd700; stroke: #000000"/>
     <use xlink:href="#m0a5c0b2472" x="35.261896" y="102.212941" style="fill: #ffd700; stroke: #000000"/>
     <use xlink:href="#m0a5c0b2472" x="26.843327" y="101.92882" style="fill: #ffd700; stroke: #000000"/>
     <use xlink:href="#m0a5c0b2472" x="20.799226" y="101.171164" style="fill: #ffd700; stroke: #000000"/>
    </g>
   </g>
   <g id="PathCollection_2">
    <defs>
     <path id="m93bfbc3feb" d="M 0 3.535534 
C 0.937635 3.535534 1.836992 3.163008 2.5 2.5 
C 3.163008 1.836992 3.535534 0.937635 3.535534 0 
C 3.535534 -0.937635 3.163008 -1.836992 2.5 -2.5 
C 1.836992 -3.163008 0.937635 -3.535534 0 -3.535534 
C -0.937635 -3.535534 -1.836992 -3.163008 -2.5 -2.5 
C -3.163008 -1.836992 -3.535534 -0.937635 -3.535534 0 
C -3.535534 0.937635 -3.163008 1.836992 -2.5 2.5 
C -1.836992 3.163008 -0.937635 3.535534 0 3.535534 
z
" style="stroke: #000000"/>
    </defs>
    <g clip-path="url(#pb503fca9c4)">
     <use xlink:href="#m93bfbc3feb" x="17.789972" y="118.178748" style="fill: #daa520; stroke: #000000"/>
     <use xlink:href="#m93bfbc3feb" x="23.359513" y="117.332336" style="fill: #daa520; stroke: #000000"/>
     <use xlink:href="#m93bfbc3feb" x="28.379944" y="117.967145" style="fill: #daa520; stroke: #000000"/>
     <use xlink:href="#m93bfbc3feb" x="32.615933" y="118.954626" style="fill: #daa520; stroke: #000000"/>
     <use xlink:href="#m93bfbc3feb" x="38.185473" y="120.365313" style="fill: #daa520; stroke: #000000"/>
     <use xlink:href="#m93bfbc3feb" x="44.068791" y="123.327756" style="fill: #daa520; stroke: #000000"/>
     <use xlink:href="#m93bfbc3feb" x="51.285661" y="128.688366" style="fill: #daa520; stroke: #000000"/>
     <use xlink:href="#m93bfbc3feb" x="58.031865" y="141.172947" style="fill: #daa520; stroke: #000000"/>
     <use xlink:href="#m93bfbc3feb" x="51.285661" y="151.047756" style="fill: #daa520; stroke: #000000"/>
     <use xlink:href="#m93bfbc3feb" x="44.068791" y="156.267298" style="fill: #daa520; stroke: #000000"/>
     <use xlink:href="#m93bfbc3feb" x="38.185473" y="158.736" style="fill: #daa520; stroke: #000000"/>
     <use xlink:href="#m93bfbc3feb" x="32.615933" y="159.723481" style="fill: #daa520; stroke: #000000"/>
     <use xlink:href="#m93bfbc3feb" x="28.144611" y="160.640427" style="fill: #daa520; stroke: #000000"/>
     <use xlink:href="#m93bfbc3feb" x="24.536176" y="160.993099" style="fill: #daa520; stroke: #000000"/>
     <use xlink:href="#m93bfbc3feb" x="23.359513" y="160.993099" style="fill: #daa520; stroke: #000000"/>
     <use xlink:href="#m93bfbc3feb" x="17.789972" y="160.922565" style="fill: #daa520; stroke: #000000"/>
     <use xlink:href="#m93bfbc3feb" x="15.044424" y="159.794015" style="fill: #daa520; stroke: #000000"/>
     <use xlink:href="#m93bfbc3feb" x="13.083318" y="157.11371" style="fill: #daa520; stroke: #000000"/>
     <use xlink:href="#m93bfbc3feb" x="11.985098" y="152.035237" style="fill: #daa520; stroke: #000000"/>
     <use xlink:href="#m93bfbc3feb" x="11.357545" y="141.525618" style="fill: #daa520; stroke: #000000"/>
     <use xlink:href="#m93bfbc3feb" x="11.671321" y="134.683786" style="fill: #daa520; stroke: #000000"/>
     <use xlink:href="#m93bfbc3feb" x="12.769541" y="127.983023" style="fill: #daa520; stroke: #000000"/>
     <use xlink:href="#m93bfbc3feb" x="14.809091" y="121.776" style="fill: #daa520; stroke: #000000"/>
    </g>
   </g>
  </g>
 </g>
 <defs>
  <clipPath id="pb503fca9c4">
   <rect x="7.2" y="7.2" width="223.2" height="166.32"/>
  </clipPath>
 </defs>
</svg>
