<?xml version="1.0" encoding="utf-8" standalone="no"?>
<!DOCTYPE svg PUBLIC "-//W3C//DTD SVG 1.1//EN"
  "http://www.w3.org/Graphics/SVG/1.1/DTD/svg11.dtd">
<svg xmlns:xlink="http://www.w3.org/1999/xlink" width="98.1pt" height="97.56pt" viewBox="0 0 98.1 97.56" xmlns="http://www.w3.org/2000/svg" version="1.1">
 <metadata>
  <rdf:RDF xmlns:dc="http://purl.org/dc/elements/1.1/" xmlns:cc="http://creativecommons.org/ns#" xmlns:rdf="http://www.w3.org/1999/02/22-rdf-syntax-ns#">
   <cc:Work>
    <dc:type rdf:resource="http://purl.org/dc/dcmitype/StillImage"/>
    <dc:date>2024-02-05T15:59:42.220561</dc:date>
    <dc:format>image/svg+xml</dc:format>
    <dc:creator>
     <cc:Agent>
      <dc:title>Matplotlib v3.7.1, https://matplotlib.org/</dc:title>
     </cc:Agent>
    </dc:creator>
   </cc:Work>
  </rdf:RDF>
 </metadata>
 <defs>
  <style type="text/css">*{stroke-linejoin: round; stroke-linecap: butt}</style>
 </defs>
 <g id="figure_1">
  <g id="patch_1">
   <path d="M 0 97.56 
L 98.1 97.56 
L 98.1 0 
L 0 0 
z
" style="fill: #ffffff"/>
  </g>
  <g id="axes_1">
   <g id="patch_2">
    <path d="M 7.2 90.36 
L 90.9 90.36 
L 90.9 7.2 
L 7.2 7.2 
z
" style="fill: #ffffff"/>
   </g>
   <g id="matplotlib.axis_1">
    <g id="xtick_1">
     <g id="line2d_1">
      <defs>
       <path id="m19315acb3c" d="M 0 0 
L 0 -3.5 
" style="stroke: #000000; stroke-width: 0.8"/>
      </defs>
      <g>
       <use xlink:href="#m19315acb3c" x="7.2" y="90.36" style="stroke: #000000; stroke-width: 0.8"/>
      </g>
     </g>
     <g id="line2d_2">
      <defs>
       <path id="m2666abce62" d="M 0 0 
L 0 3.5 
" style="stroke: #000000; stroke-width: 0.8"/>
      </defs>
      <g>
       <use xlink:href="#m2666abce62" x="7.2" y="7.2" style="stroke: #000000; stroke-width: 0.8"/>
      </g>
     </g>
    </g>
    <g id="xtick_2">
     <g id="line2d_3">
      <g>
       <use xlink:href="#m19315acb3c" x="23.94" y="90.36" style="stroke: #000000; stroke-width: 0.8"/>
      </g>
     </g>
     <g id="line2d_4">
      <g>
       <use xlink:href="#m2666abce62" x="23.94" y="7.2" style="stroke: #000000; stroke-width: 0.8"/>
      </g>
     </g>
    </g>
    <g id="xtick_3">
     <g id="line2d_5">
      <g>
       <use xlink:href="#m19315acb3c" x="40.68" y="90.36" style="stroke: #000000; stroke-width: 0.8"/>
      </g>
     </g>
     <g id="line2d_6">
      <g>
       <use xlink:href="#m2666abce62" x="40.68" y="7.2" style="stroke: #000000; stroke-width: 0.8"/>
      </g>
     </g>
    </g>
    <g id="xtick_4">
     <g id="line2d_7">
      <g>
       <use xlink:href="#m19315acb3c" x="57.42" y="90.36" style="stroke: #000000; stroke-width: 0.8"/>
      </g>
     </g>
     <g id="line2d_8">
      <g>
       <use xlink:href="#m2666abce62" x="57.42" y="7.2" style="stroke: #000000; stroke-width: 0.8"/>
      </g>
     </g>
    </g>
    <g id="xtick_5">
     <g id="line2d_9">
      <g>
       <use xlink:href="#m19315acb3c" x="74.16" y="90.36" style="stroke: #000000; stroke-width: 0.8"/>
      </g>
     </g>
     <g id="line2d_10">
      <g>
       <use xlink:href="#m2666abce62" x="74.16" y="7.2" style="stroke: #000000; stroke-width: 0.8"/>
      </g>
     </g>
    </g>
    <g id="xtick_6">
     <g id="line2d_11">
      <g>
       <use xlink:href="#m19315acb3c" x="90.9" y="90.36" style="stroke: #000000; stroke-width: 0.8"/>
      </g>
     </g>
     <g id="line2d_12">
      <g>
       <use xlink:href="#m2666abce62" x="90.9" y="7.2" style="stroke: #000000; stroke-width: 0.8"/>
      </g>
     </g>
    </g>
   </g>
   <g id="matplotlib.axis_2">
    <g id="ytick_1">
     <g id="line2d_13">
      <defs>
       <path id="m9c36459fbf" d="M 0 0 
L 3.5 0 
" style="stroke: #000000; stroke-width: 0.8"/>
      </defs>
      <g>
       <use xlink:href="#m9c36459fbf" x="7.2" y="90.36" style="stroke: #000000; stroke-width: 0.8"/>
      </g>
     </g>
     <g id="line2d_14">
      <defs>
       <path id="m2795b152f9" d="M 0 0 
L -3.5 0 
" style="stroke: #000000; stroke-width: 0.8"/>
      </defs>
      <g>
       <use xlink:href="#m2795b152f9" x="90.9" y="90.36" style="stroke: #000000; stroke-width: 0.8"/>
      </g>
     </g>
    </g>
    <g id="ytick_2">
     <g id="line2d_15">
      <g>
       <use xlink:href="#m9c36459fbf" x="7.2" y="72.662505" style="stroke: #000000; stroke-width: 0.8"/>
      </g>
     </g>
     <g id="line2d_16">
      <g>
       <use xlink:href="#m2795b152f9" x="90.9" y="72.662505" style="stroke: #000000; stroke-width: 0.8"/>
      </g>
     </g>
    </g>
    <g id="ytick_3">
     <g id="line2d_17">
      <g>
       <use xlink:href="#m9c36459fbf" x="7.2" y="54.965009" style="stroke: #000000; stroke-width: 0.8"/>
      </g>
     </g>
     <g id="line2d_18">
      <g>
       <use xlink:href="#m2795b152f9" x="90.9" y="54.965009" style="stroke: #000000; stroke-width: 0.8"/>
      </g>
     </g>
    </g>
    <g id="ytick_4">
     <g id="line2d_19">
      <g>
       <use xlink:href="#m9c36459fbf" x="7.2" y="37.267514" style="stroke: #000000; stroke-width: 0.8"/>
      </g>
     </g>
     <g id="line2d_20">
      <g>
       <use xlink:href="#m2795b152f9" x="90.9" y="37.267514" style="stroke: #000000; stroke-width: 0.8"/>
      </g>
     </g>
    </g>
    <g id="ytick_5">
     <g id="line2d_21">
      <g>
       <use xlink:href="#m9c36459fbf" x="7.2" y="19.570018" style="stroke: #000000; stroke-width: 0.8"/>
      </g>
     </g>
     <g id="line2d_22">
      <g>
       <use xlink:href="#m2795b152f9" x="90.9" y="19.570018" style="stroke: #000000; stroke-width: 0.8"/>
      </g>
     </g>
    </g>
    <g id="ytick_6">
     <g id="line2d_23">
      <g>
       <use xlink:href="#m9c36459fbf" x="7.2" y="7.2" style="stroke: #000000; stroke-width: 0.8"/>
      </g>
     </g>
     <g id="line2d_24">
      <g>
       <use xlink:href="#m2795b152f9" x="90.9" y="7.2" style="stroke: #000000; stroke-width: 0.8"/>
      </g>
     </g>
    </g>
   </g>
   <g id="line2d_25">
    <path d="M 87.407755 90.36 
L 86.402126 88.418177 
L 85.239522 86.654931 
L 83.897422 85.024092 
L 82.346561 83.491876 
L 80.550264 82.033252 
L 78.463772 80.629696 
L 76.033557 79.267714 
L 73.196479 77.937774 
L 69.879134 76.633672 
L 65.997662 75.352247 
L 61.45956 74.093736 
L 56.170838 72.863187 
L 50.059091 71.674323 
L 43.141528 70.558861 
L 35.70326 69.585228 
L 28.560713 68.869168 
L 22.774507 68.500897 
L 19.802748 68.435941 
L 19.934399 51.839763 
L 30.113219 51.722735 
L 45.553511 51.321114 
L 58.794318 50.770019 
L 67.940584 50.180971 
L 74.140435 49.572328 
L 78.383582 48.94524 
L 81.327733 48.297581 
L 83.39999 47.625418 
L 84.879657 46.921845 
L 85.951048 46.174433 
L 86.735333 45.36147 
L 87.308445 44.447902 
L 87.710313 43.382874 
L 87.949452 42.102689 
L 88.006655 40.550016 
L 87.846717 38.72657 
L 87.448444 36.744552 
L 86.824851 34.764878 
L 86.001062 32.88538 
L 84.989787 31.130295 
L 83.787261 29.489164 
L 82.3763 27.94191 
L 80.728818 26.46858 
L 78.80691 25.052252 
L 76.563132 23.679628 
L 73.940197 22.340806 
L 70.87048 21.028931 
L 67.275747 19.740003 
L 63.067952 18.47303 
L 58.153458 17.23096 
L 52.447369 16.023326 
L 45.916816 14.872779 
L 38.702126 13.829642 
L 31.368788 12.991467 
L 24.968498 12.474426 
L 20.202976 12.299145 
L 19.796375 12.297592 
L 19.796375 12.297592 
" clip-path="url(#p7b3c851808)" style="fill: none; stroke: #b91f72; stroke-width: 1.5; stroke-linecap: round"/>
   </g>
   <g id="line2d_26">
    <path d="M 7.31373 90.36 
L 7.547667 82.406959 
L 7.881935 78.05981 
L 8.303188 75.304049 
L 8.803677 73.425708 
L 9.382831 72.080761 
L 10.050212 71.078215 
L 10.830078 70.304306 
L 11.766768 69.691084 
L 12.930925 69.201831 
L 14.428824 68.82318 
L 16.418829 68.560885 
L 19.136143 68.439578 
L 19.74432 68.435941 
L 19.614291 51.839763 
L 13.653109 51.725112 
L 10.964256 51.473996 
L 9.555616 51.137743 
L 8.732767 50.726551 
L 8.20671 50.220984 
L 7.843096 49.555333 
L 7.582703 48.582333 
L 7.404809 46.962683 
L 7.3066 43.68668 
L 7.325722 35.416038 
L 7.532654 27.053984 
L 7.852609 22.407196 
L 8.262393 19.490194 
L 8.752491 17.515545 
L 9.320972 16.109271 
L 9.975651 15.066054 
L 10.73831 14.264184 
L 11.649996 13.630551 
L 12.776949 13.124714 
L 14.219254 12.730399 
L 16.125716 12.450862 
L 18.717435 12.307995 
L 19.750673 12.297592 
L 19.750673 12.297592 
" clip-path="url(#p7b3c851808)" style="fill: none; stroke: #b91f72; stroke-width: 1.5; stroke-linecap: round"/>
   </g>
   <g id="patch_3">
    <path d="M 7.2 90.36 
L 7.2 7.2 
" style="fill: none; stroke: #000000; stroke-width: 0.8; stroke-linejoin: miter; stroke-linecap: square"/>
   </g>
   <g id="patch_4">
    <path d="M 90.9 90.36 
L 90.9 7.2 
" style="fill: none; stroke: #000000; stroke-width: 0.8; stroke-linejoin: miter; stroke-linecap: square"/>
   </g>
   <g id="patch_5">
    <path d="M 7.2 90.36 
L 90.9 90.36 
" style="fill: none; stroke: #000000; stroke-width: 0.8; stroke-linejoin: miter; stroke-linecap: square"/>
   </g>
   <g id="patch_6">
    <path d="M 7.2 7.2 
L 90.9 7.2 
" style="fill: none; stroke: #000000; stroke-width: 0.8; stroke-linejoin: miter; stroke-linecap: square"/>
   </g>
  </g>
 </g>
 <defs>
  <clipPath id="p7b3c851808">
   <rect x="7.2" y="7.2" width="83.7" height="83.16"/>
  </clipPath>
 </defs>
</svg>
